<?xml version="1.0" standalone="no"?>
<!DOCTYPE svg PUBLIC "-//W3C//DTD SVG 20010904//EN"
 "http://www.w3.org/TR/2001/REC-SVG-20010904/DTD/svg10.dtd">
<svg version="1.0" xmlns="http://www.w3.org/2000/svg"
 width="301.000000pt" height="309.000000pt" viewBox="0 0 301.000000 309.000000"
 preserveAspectRatio="xMidYMid meet">
<metadata>
Created by potrace 1.16, written by Peter Selinger 2001-2019
</metadata>
<g transform="translate(0.000000,309.000000) scale(0.100000,-0.100000)"
fill="#000000" stroke="none">
<path d="M1245 3061 c-595 -108 -1060 -542 -1204 -1126 -31 -128 -41 -214 -41
-363 0 -581 317 -1094 835 -1351 138 -69 234 -102 384 -133 144 -30 409 -32
556 -4 622 116 1097 588 1216 1207 19 100 21 137 17 323 -5 194 -8 220 -35
326 -76 290 -214 525 -428 729 -200 190 -443 319 -720 383 -131 29 -441 35
-580 9z m717 -622 c19 -25 19 -26 -7 -120 -33 -120 -101 -358 -159 -566 -25
-89 -46 -166 -46 -172 0 -8 67 -11 210 -11 211 0 211 0 235 -25 62 -61 35 -89
-375 -382 -563 -402 -677 -482 -702 -488 -30 -8 -78 28 -78 58 0 32 180 670
194 684 6 7 88 39 181 71 283 99 300 90 -169 91 -456 1 -446 0 -446 68 0 24 9
43 33 67 17 19 261 197 541 396 552 391 545 387 588 329z"/>
</g>
</svg>
